# xmcd
#
# Track frame offsets:
#	150
#	13176
#	30963
#	52679
#	70601
#	86282
#	104668
#	120102
#	137692
#	153244
#	165358
#	177066
#	192723
#	205118
#	217901
#	229088
#	249390
#	266803
#	280092
#	295247
#
# Disc length: 4163 seconds
#
# Revision: 1
# Processed by: cddbd v1.5.2PL0 Copyright (c) Steve Scherf et al.
# Submitted via: audiograbber 1.82.02
#
DISCID=05104114
DTITLE=Various Artist  - Country Radio - October 17
DYEAR=2017
DGENRE=Country
TTITLE0=Luke Bryan - Light It Up
TTITLE1=Rebel Hearts (Ft. Kody and Boyz Nite Out) - Baby Doll
TTITLE2=Raven Cliff - VooDoo Whiskey
TTITLE3=Scotty McCreery - Five More Minutes
TTITLE4=Angus Gill - Roadworks
TTITLE5=Crossroad Station - Still Hanging On
TTITLE6=Adam Doleac - Whiskey's Fine
TTITLE7=Rascal Flatts - Back To Us
TTITLE8=Brett Eldredge - Long Way, The
TTITLE9=Brad Puckett - Waiting On Thunder
TTITLE10=Thomas Rhett - Unforgettable
TTITLE11=Danielle Bradbery - Sway
TTITLE12=Florida Georgia Line - Smooth
TTITLE13=Frankie Justin - Summer Lover
TTITLE14=Dylan Scott - Hooked
TTITLE15=Justin Standley - Little Ronnie's Ghost
TTITLE16=Chase Rice - Three Chords and The Truth
TTITLE17=Michael Lynne - Break Out The Rowdy
TTITLE18=Fiona Culley - Act Like A Lady
TTITLE19=Zac Brown Band - Roots
EXTD=
EXTT0=
EXTT1=
EXTT2=
EXTT3=
EXTT4=
EXTT5=
EXTT6=
EXTT7=
EXTT8=
EXTT9=
EXTT10=
EXTT11=
EXTT12=
EXTT13=
EXTT14=
EXTT15=
EXTT16=
EXTT17=
EXTT18=
EXTT19=
PLAYORDER=
